<!DOCTYPE svg PUBLIC "-//W3C//DTD SVG 1.1//EN" "http://www.w3.org/Graphics/SVG/1.1/DTD/svg11.dtd">
<svg version="1.1" id="Layer_1" xmlns="http://www.w3.org/2000/svg" xmlns:xlink="http://www.w3.org/1999/xlink" x="0px" y="0px"
	 viewBox="0 0 123.35 76.854" xml:space="preserve">
<path fill="#FFFFFF" d="M85.257,76.854c-13.983,0-26.607-7.68-33.25-19.685c-5.351,7.299-13.859,11.752-23.17,11.752
	C12.937,68.922,0,55.868,0,39.832c0-16.04,12.937-29.089,28.837-29.089c8.707,0,16.879,4.019,22.287,10.649
	C57.468,8.517,70.66,0,85.257,0c21.004,0,38.093,17.239,38.093,38.426C123.35,59.618,106.261,76.854,85.257,76.854z"/>
<path fill="#224E9E" d="M101.29,20.001c-0.405-0.167-0.82-0.253-1.232-0.253c-0.461,0-0.914,0.104-1.349,0.316
	c-0.755,0.362-1.333,0.95-1.674,1.688l-0.019,0.043L85.537,50.798L74.004,21.795l-0.021-0.048c-0.34-0.733-0.919-1.322-1.676-1.684
	c-0.432-0.212-0.888-0.316-1.347-0.316c-0.414,0-0.824,0.087-1.234,0.258c-0.817,0.347-1.438,0.955-1.782,1.756
	c-0.355,0.825-0.359,1.703-0.013,2.557l14.53,36.547c0.2,0.526,0.545,1.022,1.025,1.477c0.735,0.694,1.521,0.844,2.053,0.844
	c0.742,0,1.442-0.274,2.021-0.781c0.474-0.42,0.845-0.912,1.093-1.467l0.018-0.043l14.421-36.591
	c0.341-0.844,0.336-1.717-0.017-2.542C102.727,20.961,102.11,20.348,101.29,20.001z"/>
<g>
	<g>
		<path fill="#224E9E" d="M19.952,34.454V34.08c0-1.382-0.869-2.009-3.433-2.009c-0.398,0-1.542,0-1.889,0.026v4.342h2.783
			C19.382,36.439,19.952,35.534,19.952,34.454z M17.414,39.425H14.63v4.696c0.4,0,1.693,0.021,2.04,0.021
			c2.562,0,3.385-0.803,3.385-2.207v-0.277C20.055,40.455,19.409,39.425,17.414,39.425z M37.347,39.277v1.706
			c0,1.756,0.47,3.113,2.238,3.113c0.598,0,1.495-0.077,2.091-0.154v-7.554c-0.475-0.072-1.271-0.179-2.091-0.179
			C37.817,36.209,37.347,37.495,37.347,39.277z M85.257,3.433c-15.874,0-29.28,10.813-33.386,25.517
			C47.81,20.22,39.026,14.178,28.837,14.178c-14.046,0-25.434,11.486-25.434,25.654c0,14.169,11.388,25.655,25.434,25.655
			c10.637,0,19.739-6.58,23.536-15.935c4.622,13.855,17.608,23.87,32.884,23.87c19.127,0,34.688-15.698,34.688-34.997
			C119.945,19.132,104.384,3.433,85.257,3.433z M24.182,42.035c0,4.416-3.531,5.619-7.837,5.619c-1.643,0-3.582-0.118-4.552-0.296
			c-0.993-0.179-1.37-0.502-1.37-1.631V30.464c0-1.129,0.348-1.479,1.322-1.631c0.844-0.123,2.855-0.275,4.452-0.275
			c4.699,0,7.861,1.254,7.861,5.249v0.446c0,1.635-0.77,3.042-2.092,3.693c1.322,0.646,2.215,1.98,2.215,3.712V42.035z
			 M30.95,46.929c0,0.275-0.222,0.502-0.496,0.502h-3.035c-0.274,0-0.496-0.227-0.496-0.502V33.552c0-0.28,0.222-0.502,0.496-0.502
			h3.035c0.274,0,0.496,0.222,0.496,0.502V46.929z M31.053,30.917c0,0.275-0.224,0.502-0.499,0.502h-3.236
			c-0.272,0-0.497-0.227-0.497-0.502v-2.332c0-0.278,0.225-0.504,0.497-0.504h3.236c0.275,0,0.499,0.227,0.499,0.504V30.917z
			 M45.632,47.483c0,3.613-1.918,5.018-6.025,5.018c-2.135,0-3.854-0.374-4.749-0.676c-0.351-0.125-0.497-0.275-0.497-0.651v-1.679
			c0-0.261,0.174-0.458,0.446-0.458c0.026,0,0.026,0,0.051,0c1.124,0.101,3.558,0.301,4.749,0.301c1.72,0,2.069-0.397,2.069-1.854
			v-0.279c-0.451,0.101-1.518,0.227-2.091,0.227c-4.207,0-6.247-2.506-6.247-6.447v-1.706c0-4.071,2.219-6.43,6.247-6.43
			c1.915,0,3.881,0.28,5.277,0.63c0.642,0.176,0.77,0.299,0.77,0.702V47.483z M85.257,66.935C69.677,66.935,57,54.146,57,38.426
			C57,22.712,69.677,9.923,85.257,9.923c15.579,0,28.257,12.789,28.257,28.503C113.514,54.146,100.836,66.935,85.257,66.935z"/>
	</g>
</g>
</svg>
